<svg width="100%" height="100%" viewBox="0 0 512 512" version="1.1" xmlns="http://www.w3.org/2000/svg" xml:space="preserve" style="fill-rule:evenodd;clip-rule:evenodd;stroke-linejoin:round;stroke-miterlimit:2;">
    <g transform="matrix(1,0,0,1,-862,0)">
        <g id="Blue" transform="matrix(1.14148,0,0,1.40992,1062.26,-564.669)">
            <rect x="-175.204" y="400.498" width="448.541" height="363.141" style="fill:none;"/>
            <clipPath id="_clip1">
                <rect x="-175.204" y="400.498" width="448.541" height="363.141"/>
            </clipPath>
            <g clip-path="url(#_clip1)">
                <g transform="matrix(0.0607193,2.71283e-20,-3.35081e-20,-0.0489372,-194.634,777.635)">
                    <path d="M3875,7704C3487,7666 3222,7591 2931,7439C2709,7323 2546,7204 2356,7020C1973,6648 1735,6192 1653,5670C1629,5512 1628,5142 1653,4985C1697,4705 1789,4447 1926,4212C2012,4066 2082,3964 2281,3700C2689,3156 2779,2966 2809,2582C2814,2520 2820,2468 2822,2467C2823,2466 3074,2466 3378,2468L3930,2470L3930,2736C3930,2979 3929,3001 3913,3006C3826,3032 3746,3099 3704,3182C3665,3257 3659,3372 3690,3453C3719,3529 3802,3620 3871,3650C3950,3683 4081,3682 4154,3646C4229,3609 4315,3515 4335,3448C4357,3374 4354,3272 4329,3205C4304,3139 4224,3053 4155,3020L4110,2998L4110,2470L4634,2470C4922,2470 5171,2467 5187,2464L5217,2458L5223,2574C5236,2794 5278,2957 5372,3145C5441,3283 5521,3402 5750,3710C5859,3856 5980,4025 6019,4085C6105,4216 6217,4438 6264,4570C6462,5124 6418,5828 6150,6375C5940,6805 5569,7193 5150,7420C4888,7562 4654,7639 4349,7685C4249,7700 3954,7712 3875,7704ZM3465,7115C3611,7084 3738,6999 3824,6873C3977,6648 3957,6349 3776,6153L3723,6095L3775,6037C3831,5975 3885,5880 3916,5790C3930,5748 3935,5707 3935,5615C3934,5483 3915,5403 3862,5305L3834,5255L3866,5214C3909,5157 3968,4988 3976,4897C3988,4760 3934,4581 3846,4466L3808,4418L3840,4321C3914,4100 3867,3887 3710,3730C3598,3618 3477,3570 3308,3570C3154,3570 3049,3618 2924,3746C2869,3801 2810,3899 2786,3973C2782,3985 2770,3990 2743,3990C2681,3990 2584,4018 2502,4057C2443,4086 2405,4114 2339,4180C2204,4315 2146,4446 2146,4620C2146,4728 2166,4818 2209,4902L2238,4958L2166,5032C2044,5156 1992,5273 1983,5444C1971,5667 2052,5846 2224,5983L2274,6022L2275,6153C2275,6269 2278,6294 2302,6357C2369,6543 2538,6683 2731,6714C2776,6721 2800,6729 2800,6738C2800,6745 2812,6774 2826,6803C2946,7043 3205,7169 3465,7115ZM4792,7115C4965,7079 5122,6954 5203,6789L5235,6724L5300,6712C5440,6688 5593,6582 5672,6456C5739,6347 5772,6183 5746,6084C5731,6030 5731,6024 5747,6015C5793,5987 5881,5906 5913,5862C6021,5716 6068,5509 6031,5350C6007,5247 5937,5120 5861,5038L5790,4962L5816,4905C5857,4811 5871,4742 5871,4635C5870,4519 5854,4446 5803,4340C5753,4235 5626,4109 5518,4057C5434,4016 5338,3990 5273,3990C5247,3990 5230,3985 5230,3979C5230,3972 5214,3934 5194,3893C5132,3764 4990,3633 4866,3590C4795,3566 4634,3563 4555,3584C4430,3617 4299,3712 4229,3821C4125,3983 4111,4206 4196,4359C4209,4383 4220,4406 4220,4410C4220,4415 4204,4437 4184,4461C4147,4506 4091,4609 4072,4670C4048,4744 4039,4851 4050,4933C4064,5029 4086,5092 4140,5184L4181,5254L4154,5303C4088,5424 4063,5611 4094,5745C4114,5830 4174,5942 4244,6030L4297,6095L4244,6148C4137,6257 4095,6379 4103,6560C4108,6692 4130,6766 4189,6857C4324,7065 4558,7165 4792,7115Z" style="fill:rgb(5,223,215);fill-rule:nonzero;"/>
                </g>
                <g transform="matrix(0.0607193,2.71283e-20,-3.35081e-20,-0.0489372,-194.634,777.635)">
                    <path d="M3260,6935C3206,6921 3138,6887 3091,6851C3057,6825 2980,6735 2980,6721C2980,6717 3007,6700 3039,6683L3098,6652L3133,6681C3202,6737 3248,6743 3291,6701C3313,6678 3320,6662 3320,6632C3320,6591 3312,6581 3235,6526C3203,6504 3180,6454 3180,6407C3180,6328 3139,6280 3072,6280C3038,6280 3003,6314 2995,6355C2991,6372 2993,6411 2998,6442L3007,6499L2941,6522C2857,6551 2767,6550 2687,6520C2611,6491 2520,6404 2482,6323C2458,6272 2455,6254 2455,6165C2456,6077 2459,6058 2483,6009C2498,5978 2527,5933 2548,5909C2598,5852 2603,5836 2585,5794C2568,5752 2514,5725 2477,5739C2463,5744 2433,5771 2409,5799C2385,5827 2361,5850 2357,5850C2343,5850 2248,5756 2224,5718C2167,5628 2145,5491 2171,5381C2196,5273 2279,5156 2375,5095C2443,5052 2508,5031 2602,5024C2673,5018 2683,5014 2705,4988C2735,4952 2738,4902 2711,4869C2693,4847 2685,4845 2612,4847C2568,4848 2502,4856 2464,4865C2424,4874 2393,4877 2387,4871C2368,4852 2328,4721 2323,4659C2303,4426 2482,4217 2729,4184L2775,4178L2788,4246C2800,4308 2799,4314 2781,4334C2748,4371 2720,4424 2720,4453C2720,4494 2760,4530 2805,4530C2853,4530 2875,4517 2905,4470C2935,4422 2987,4394 3056,4387C3124,4380 3146,4367 3159,4327C3172,4289 3166,4265 3137,4233C3112,4205 3069,4197 3008,4208C2970,4215 2960,4214 2956,4203C2934,4146 2977,3976 3034,3899C3076,3842 3158,3787 3235,3765C3395,3718 3579,3802 3655,3957C3692,4033 3701,4151 3675,4233C3653,4304 3597,4377 3535,4417C3443,4476 3428,4492 3428,4533C3428,4638 3512,4657 3627,4579C3650,4563 3672,4550 3677,4550C3681,4550 3695,4565 3707,4583C3799,4718 3812,4907 3740,5051C3713,5103 3707,5109 3690,5100C3680,5095 3668,5085 3665,5080C3656,5066 3534,5005 3484,4990C3443,4978 3442,4976 3430,4916C3423,4883 3412,4843 3404,4828C3371,4764 3298,4750 3249,4799C3216,4833 3213,4856 3236,4938C3257,5014 3244,5061 3185,5131C3139,5185 3129,5221 3150,5261C3162,5282 3210,5310 3236,5310C3266,5310 3319,5267 3357,5212C3391,5163 3396,5160 3424,5166C3481,5178 3569,5232 3624,5289C3756,5428 3792,5617 3719,5787C3692,5850 3624,5937 3580,5966L3545,5988L3475,5970C3371,5942 3250,5947 3159,5981C3091,6007 3098,6120 3169,6150C3193,6160 3210,6160 3251,6150C3429,6107 3624,6200 3701,6364C3761,6492 3760,6596 3699,6719C3622,6872 3412,6976 3260,6935ZM2901,5781C2955,5726 2934,5650 2858,5630C2811,5617 2726,5625 2693,5646C2647,5675 2656,5766 2709,5795C2724,5803 2764,5809 2803,5810C2866,5810 2874,5807 2901,5781Z" style="fill:rgb(5,223,215);fill-rule:nonzero;"/>
                </g>
                <g transform="matrix(0.0607193,2.71283e-20,-3.35081e-20,-0.0489372,-194.634,777.635)">
                    <path d="M4610,6940C4543,6926 4466,6884 4405,6828C4201,6642 4255,6297 4507,6178C4559,6153 4582,6149 4662,6147C4713,6146 4776,6149 4802,6154C4844,6162 4851,6160 4874,6137C4920,6091 4921,6024 4875,5994C4844,5974 4741,5951 4682,5950C4658,5950 4602,5959 4558,5971L4478,5991L4441,5965C4382,5925 4329,5846 4290,5743C4233,5590 4296,5362 4425,5256C4474,5215 4550,5175 4597,5165C4623,5160 4629,5162 4635,5179C4638,5190 4668,5224 4701,5254C4768,5316 4799,5324 4843,5290C4872,5267 4886,5220 4871,5192C4865,5182 4845,5154 4826,5131C4776,5071 4765,5024 4781,4928C4796,4834 4787,4806 4733,4784C4659,4753 4615,4802 4594,4937C4588,4977 4585,4980 4536,4996C4473,5017 4398,5054 4344,5091L4303,5119L4270,5047C4231,4964 4220,4861 4239,4769C4251,4710 4296,4611 4328,4571L4347,4547L4381,4572C4466,4636 4525,4646 4565,4605C4583,4588 4590,4570 4590,4542C4590,4500 4571,4477 4489,4422C4431,4383 4388,4330 4353,4253C4276,4088 4365,3878 4548,3788C4606,3759 4624,3755 4695,3755C4766,3755 4783,3759 4845,3789C5000,3865 5082,4009 5063,4169L5058,4217L4980,4212C4906,4208 4903,4209 4882,4235C4851,4274 4852,4333 4885,4365C4904,4385 4920,4390 4956,4390C5022,4390 5084,4422 5121,4477C5158,4530 5190,4545 5236,4530C5310,4505 5319,4441 5263,4359L5225,4305L5240,4244L5254,4182L5295,4187C5434,4203 5559,4288 5637,4420C5704,4533 5708,4722 5645,4851L5628,4886L5557,4868C5518,4858 5453,4849 5412,4848C5342,4846 5336,4847 5314,4873C5283,4909 5282,4960 5313,4995C5332,5017 5345,5022 5405,5026C5444,5028 5495,5036 5520,5042C5639,5071 5759,5171 5817,5287C5844,5342 5845,5352 5845,5480C5845,5610 5844,5617 5814,5680C5783,5745 5738,5799 5681,5839C5652,5860 5651,5860 5645,5841C5642,5830 5618,5803 5593,5780C5535,5729 5493,5726 5449,5769C5406,5813 5410,5850 5464,5912C5516,5971 5556,6049 5571,6119C5584,6181 5570,6261 5533,6334C5502,6394 5414,6481 5355,6510C5265,6553 5150,6555 5054,6515C5017,6500 5017,6500 5023,6452C5030,6389 5018,6334 4988,6303C4969,6282 4959,6279 4925,6283C4868,6291 4840,6327 4840,6391C4840,6456 4821,6499 4776,6535C4680,6612 4674,6628 4710,6687C4744,6743 4824,6743 4884,6687L4918,6655L4978,6683L5039,6711L5008,6762C4930,6889 4751,6969 4610,6940ZM5325,5785C5349,5762 5355,5741 5351,5695C5344,5615 5142,5595 5103,5670C5079,5715 5105,5780 5155,5801C5166,5805 5203,5809 5238,5809C5292,5810 5304,5807 5325,5785Z" style="fill:rgb(5,223,215);fill-rule:nonzero;"/>
                </g>
                <g transform="matrix(0.0607193,2.71283e-20,-3.35081e-20,-0.0489372,-194.634,777.635)">
                    <path d="M944,7390C897,7371 873,7295 903,7258C909,7249 1034,7163 1180,7066C1469,6874 1487,6866 1535,6915C1564,6943 1567,6985 1543,7019C1526,7044 1018,7383 984,7393C974,7396 955,7395 944,7390Z" style="fill:rgb(5,223,215);fill-rule:nonzero;"/>
                </g>
                <g transform="matrix(0.0607193,2.71283e-20,-3.35081e-20,-0.0489372,-194.634,777.635)">
                    <path d="M6764,7225C6616,7128 6487,7040 6478,7028C6450,6996 6454,6936 6486,6911C6544,6865 6563,6874 6851,7071C6996,7170 7121,7259 7128,7268C7160,7310 7124,7383 7064,7395C7037,7400 7004,7382 6764,7225Z" style="fill:rgb(5,223,215);fill-rule:nonzero;"/>
                </g>
                <g transform="matrix(0.0607193,2.71283e-20,-3.35081e-20,-0.0489372,-194.634,777.635)">
                    <path d="M365,5948C333,5931 320,5909 320,5873C320,5833 357,5790 392,5790C405,5790 556,5767 728,5738L1041,5687L1067,5713C1110,5756 1097,5820 1039,5851C1022,5860 436,5960 403,5960C393,5960 376,5954 365,5948Z" style="fill:rgb(5,223,215);fill-rule:nonzero;"/>
                </g>
                <g transform="matrix(0.0607193,2.71283e-20,-3.35081e-20,-0.0489372,-194.634,777.635)">
                    <path d="M7298,5909C7141,5882 7001,5856 6987,5851C6926,5827 6913,5738 6966,5704C6989,5688 7009,5690 7318,5740C7498,5769 7655,5797 7667,5803C7693,5815 7714,5870 7705,5900C7695,5930 7651,5960 7616,5959C7599,5958 7456,5936 7298,5909Z" style="fill:rgb(5,223,215);fill-rule:nonzero;"/>
                </g>
                <g transform="matrix(0.0607193,2.71283e-20,-3.35081e-20,-0.0489372,-194.634,777.635)">
                    <path d="M706,4655C348,4585 350,4586 350,4504C350,4456 374,4430 419,4430C448,4430 1002,4537 1047,4551C1086,4563 1110,4594 1110,4632C1110,4662 1075,4706 1045,4713C1034,4715 881,4689 706,4655Z" style="fill:rgb(5,223,215);fill-rule:nonzero;"/>
                </g>
                <g transform="matrix(0.0607193,2.71283e-20,-3.35081e-20,-0.0489372,-194.634,777.635)">
                    <path d="M6954,4706C6904,4684 6893,4620 6933,4576C6953,4552 6982,4545 7272,4490C7446,4457 7600,4430 7613,4430C7640,4430 7680,4468 7680,4494C7680,4527 7649,4578 7622,4589C7607,4595 7467,4625 7310,4656C7153,4686 7016,4713 7005,4715C6994,4718 6971,4713 6954,4706Z" style="fill:rgb(5,223,215);fill-rule:nonzero;"/>
                </g>
                <g transform="matrix(0.0607193,2.71283e-20,-3.35081e-20,-0.0489372,-194.634,777.635)">
                    <path d="M1249,3345C1109,3243 987,3150 978,3138C950,3106 955,3066 991,3036C1043,2992 1062,2999 1241,3129C1599,3390 1615,3402 1618,3438C1620,3459 1614,3481 1600,3500C1583,3524 1571,3530 1540,3530C1507,3530 1473,3508 1249,3345Z" style="fill:rgb(5,223,215);fill-rule:nonzero;"/>
                </g>
                <g transform="matrix(0.0607193,2.71283e-20,-3.35081e-20,-0.0489372,-194.634,777.635)">
                    <path d="M6425,3505C6391,3472 6392,3429 6428,3391C6478,3338 6950,3010 6977,3010C7034,3010 7081,3098 7048,3143C7041,3152 6918,3243 6775,3345C6491,3547 6474,3555 6425,3505Z" style="fill:rgb(5,223,215);fill-rule:nonzero;"/>
                </g>
                <g transform="matrix(0.0607193,2.71283e-20,-3.35081e-20,-0.0489372,-194.634,777.635)">
                    <path d="M3972,3490C3935,3481 3886,3439 3864,3398C3846,3363 3846,3317 3864,3281C3886,3239 3955,3182 3992,3175C4046,3165 4107,3195 4141,3249C4223,3377 4119,3525 3972,3490Z" style="fill:rgb(5,223,215);fill-rule:nonzero;"/>
                </g>
                <g transform="matrix(0.0607193,2.71283e-20,-3.35081e-20,-0.0489372,-194.634,777.635)">
                    <path d="M2832,2269C2683,2240 2606,2078 2674,1935C2701,1877 2730,1848 2785,1823C2823,1806 2893,1805 3979,1802C4739,1800 5152,1803 5188,1810C5296,1830 5366,1905 5377,2014C5388,2121 5336,2218 5248,2256C5207,2274 5154,2275 4040,2277C3399,2277 2856,2274 2832,2269Z" style="fill:rgb(5,223,215);fill-rule:nonzero;"/>
                </g>
                <g transform="matrix(0.0607193,2.71283e-20,-3.35081e-20,-0.0489372,-194.634,777.635)">
                    <path d="M2925,1601C2819,1575 2746,1454 2765,1337C2780,1248 2843,1171 2917,1151C2942,1144 3307,1140 4018,1140C4956,1140 5085,1142 5118,1156C5309,1235 5302,1537 5108,1595C5063,1608 4923,1610 4006,1609C3428,1608 2942,1605 2925,1601Z" style="fill:rgb(5,223,215);fill-rule:nonzero;"/>
                </g>
                <g transform="matrix(0.0607193,2.71283e-20,-3.35081e-20,-0.0489372,-194.634,777.635)">
                    <path d="M3314,898C3339,677 3496,456 3694,360C3812,304 3886,286 4015,286C4103,286 4140,290 4200,309C4411,374 4561,499 4650,685C4687,762 4720,880 4720,934L4720,960L3307,960L3314,898Z" style="fill:rgb(5,223,215);fill-rule:nonzero;"/>
                </g>
            </g>
        </g>
    </g>
</svg>
